<?xml version="1.0" encoding="UTF-8" standalone="no"?>
<svg
   xmlns:dc="http://purl.org/dc/elements/1.1/"
   xmlns:cc="http://creativecommons.org/ns#"
   xmlns:rdf="http://www.w3.org/1999/02/22-rdf-syntax-ns#"
   xmlns:svg="http://www.w3.org/2000/svg"
   xmlns="http://www.w3.org/2000/svg"
   viewBox="0 0 680.32001 153.32001"
   height="153.32001"
   width="680.32001"
   xml:space="preserve"
   id="svg2"
   version="1.1"><metadata
     id="metadata8"><rdf:RDF><cc:Work
         rdf:about=""><dc:format>image/svg+xml</dc:format><dc:type
           rdf:resource="http://purl.org/dc/dcmitype/StillImage" /><dc:title></dc:title></cc:Work></rdf:RDF></metadata><defs
     id="defs6" /><g
     transform="matrix(1.3333333,0,0,-1.3333333,0,153.32)"
     id="g10"><g
       transform="scale(0.1)"
       id="g12"><path
         id="path14"
         style="fill:#0baebd;fill-opacity:1;fill-rule:nonzero;stroke:none"
         d="m 5102.37,381.891 c 0,59.668 -48.38,108.047 -108.06,108.047 -59.67,0 -108.05,-48.379 -108.05,-108.047 0,-59.68 48.38,-108.047 108.05,-108.047 59.68,0 108.06,48.367 108.06,108.047" /><path
         id="path16"
         style="fill:#0baebd;fill-opacity:1;fill-rule:nonzero;stroke:none"
         d="M 0,1149.91 438.027,273.844 667.059,731.895 Z" /><path
         id="path18"
         style="fill:#0baebd;fill-opacity:1;fill-rule:nonzero;stroke:none"
         d="M 876.066,1149.91 474.035,897.957 684.23,766.238 Z" /><path
         id="path20"
         style="fill:#100f0d;fill-opacity:1;fill-rule:nonzero;stroke:none"
         d="m 1286.36,980.035 c -67.75,0 -121.48,-33.879 -121.48,-95.789 0,-64.242 80.6,-89.937 146.02,-112.137 120.31,-40.882 255.81,-94.613 255.81,-259.32 0,-179.883 -163.53,-253.476 -299.04,-253.476 -123.81,0 -217.26,43.222 -306.041,130.828 l 98.121,94.621 c 71.26,-68.926 124.99,-100.461 209.1,-100.461 72.41,0 144.84,35.051 144.84,120.312 0,78.27 -82.94,107.473 -168.21,137.844 -109.8,39.711 -225.44,93.445 -225.44,234.785 0,155.358 123.82,227.778 258.15,227.778 101.62,0 184.56,-31.54 263.99,-91.11 l -85.27,-103.965 c -42.05,37.379 -107.47,70.09 -170.55,70.09" /><path
         id="path22"
         style="fill:#100f0d;fill-opacity:1;fill-rule:nonzero;stroke:none"
         d="m 1710.36,874.906 135.5,-398.328 h 2.34 l 137.83,398.328 h 154.19 L 1801.47,0 1675.32,47.8906 1771.1,301.363 1555,874.906 h 155.36" /><path
         id="path24"
         style="fill:#100f0d;fill-opacity:1;fill-rule:nonzero;stroke:none"
         d="m 2600.42,689.176 c -40.88,52.562 -98.12,75.933 -153.01,75.933 -117.98,0 -174.05,-100.461 -174.05,-192.742 0,-98.125 65.41,-189.238 171.71,-189.238 56.07,0 121.48,28.039 155.35,93.449 z m 142.52,-415.852 h -129.66 l -7.02,77.11 c -43.22,-65.418 -121.47,-91.121 -188.05,-91.121 -165.88,0 -288.52,141.335 -288.52,316.562 0,164.695 117.97,313.051 290.85,313.051 61.91,0 133.16,-24.535 179.88,-75.934 v 336.418 h 142.52 V 273.324" /><path
         id="path26"
         style="fill:#100f0d;fill-opacity:1;fill-rule:nonzero;stroke:none"
         d="m 2964.86,874.906 7,-88.777 c 47.89,68.922 119.15,102.797 191.57,102.797 72.42,0 128.49,-29.203 165.87,-77.102 44.4,-58.402 53.73,-137.836 53.73,-225.437 V 273.324 h -141.34 v 302.551 c 0,50.223 -1.16,106.293 -23.36,143.672 -17.53,30.375 -47.9,45.562 -91.11,45.562 -56.07,0 -114.48,-36.218 -149.51,-92.289 V 273.324 h -141.35 v 601.582 h 128.5" /><path
         id="path28"
         style="fill:#100f0d;fill-opacity:1;fill-rule:nonzero;stroke:none"
         d="m 3755.62,765.109 c -98.11,0 -168.2,-85.277 -168.2,-190.402 0,-106.305 70.09,-191.578 168.2,-191.578 98.13,0 168.21,85.273 168.21,191.578 0,105.125 -70.08,190.402 -168.21,190.402 z M 4067.5,574.707 c 0,-176.391 -131.99,-315.394 -311.88,-315.394 -179.88,0 -311.88,139.003 -311.88,315.394 0,175.215 132,314.219 311.88,314.219 179.89,0 311.88,-139.004 311.88,-314.219" /><path
         id="path30"
         style="fill:#100f0d;fill-opacity:1;fill-rule:nonzero;stroke:none"
         d="m 4601.3,689.176 c -40.89,52.562 -98.11,75.933 -153.02,75.933 -117.98,0 -174.05,-100.461 -174.05,-192.742 0,-98.125 65.42,-189.238 171.71,-189.238 56.07,0 121.49,28.039 155.36,93.449 z m 142.51,-415.852 h -129.66 l -7.01,77.11 c -43.21,-65.418 -121.48,-91.121 -188.06,-91.121 -165.87,0 -288.52,141.335 -288.52,316.562 0,164.695 117.98,313.051 290.85,313.051 61.91,0 133.16,-24.535 179.89,-75.934 v 336.418 h 142.51 V 273.324" /></g></g></svg>
